<svg width="869" height="441" viewBox="0 0 869 441" fill="none" xmlns="http://www.w3.org/2000/svg">
<path d="M506 315.75C506 274.329 539.579 240.75 581 240.75H782.75V357C782.75 398.421 749.171 432 707.75 432H581C539.579 432 506 398.421 506 357V315.75Z" fill="#8A8A8A"/>
<path d="M506 324.75C506 283.329 539.579 249.75 581 249.75H782.75V343.5C782.75 384.921 749.171 418.5 707.75 418.5H581C539.579 418.5 506 384.921 506 343.5V324.75Z" fill="white"/>
<rect x="-31.75" y="171" width="900" height="180" rx="90" fill="#C4C4C4"/>
<rect x="-34" y="173.25" width="900" height="157.5" rx="78.75" fill="white"/>
<rect x="155" y="56.25" width="652.5" height="256.5" rx="128.25" fill="#E5E5E5"/>
<rect x="152.75" y="58.5" width="652.5" height="234" rx="117" fill="white"/>
<rect x="8.75" y="216" width="472.5" height="225" rx="112.5" fill="#EAEEF4"/>
<rect x="6.5" y="200.25" width="472.5" height="220.5" rx="110.25" fill="white"/>
<path d="M153 84.5C153 37.8319 190.832 0 237.5 0H343.5C390.168 0 428 37.8319 428 84.5V94C428 135.421 394.421 169 353 169H153V84.5Z" fill="white"/>
</svg>
